<mxfile host="app.diagrams.net" modified="2024-03-07T11:27:19.719Z" agent="Mozilla/5.0 (Macintosh; Intel Mac OS X 10_15_7) AppleWebKit/537.36 (KHTML, like Gecko) Chrome/121.0.0.0 Safari/537.36" etag="9Ni4dw-7PFwIVwjJPdOy" version="23.1.5" type="github">
  <diagram name="第 1 页" id="KnTpGIPtcygesuEFWRaa">
    <mxGraphModel dx="954" dy="532" grid="1" gridSize="10" guides="1" tooltips="1" connect="1" arrows="1" fold="1" page="1" pageScale="1" pageWidth="827" pageHeight="1169" math="0" shadow="0">
      <root>
        <mxCell id="0" />
        <mxCell id="1" parent="0" />
        <mxCell id="qaMExAlMrHJPnau9Rg41-77" value="" style="rounded=1;whiteSpace=wrap;html=1;fillStyle=dashed;sketch=1;curveFitting=1;jiggle=2;fillColor=#f8cecc;strokeColor=#b85450;" vertex="1" parent="1">
          <mxGeometry x="812.25" y="470" width="227.75" height="151" as="geometry" />
        </mxCell>
        <mxCell id="qaMExAlMrHJPnau9Rg41-40" value="" style="shape=cylinder3;whiteSpace=wrap;html=1;boundedLbl=1;backgroundOutline=1;size=23.29629629629619;fillStyle=dashed;sketch=1;curveFitting=1;jiggle=2;fillColor=#dae8fc;strokeColor=#6c8ebf;" vertex="1" parent="1">
          <mxGeometry x="530.25" y="541" width="209.75" height="210" as="geometry" />
        </mxCell>
        <mxCell id="qaMExAlMrHJPnau9Rg41-41" value="SLS/&lt;br&gt;CDC数据源" style="strokeWidth=2;html=1;shape=mxgraph.flowchart.direct_data;whiteSpace=wrap;sketch=1;curveFitting=1;jiggle=2;fillColor=#dae8fc;strokeColor=#6c8ebf;" vertex="1" parent="1">
          <mxGeometry x="20" y="613.5" width="110" height="85" as="geometry" />
        </mxCell>
        <mxCell id="qaMExAlMrHJPnau9Rg41-42" value="" style="rounded=1;whiteSpace=wrap;html=1;fillStyle=dashed;sketch=1;curveFitting=1;jiggle=2;fillColor=#f8cecc;strokeColor=#b85450;" vertex="1" parent="1">
          <mxGeometry x="220" y="551" width="250" height="180" as="geometry" />
        </mxCell>
        <mxCell id="qaMExAlMrHJPnau9Rg41-81" style="edgeStyle=orthogonalEdgeStyle;rounded=0;sketch=1;hachureGap=4;jiggle=2;curveFitting=1;orthogonalLoop=1;jettySize=auto;html=1;exitX=1;exitY=0.5;exitDx=0;exitDy=0;exitPerimeter=0;" edge="1" parent="1" source="qaMExAlMrHJPnau9Rg41-43" target="qaMExAlMrHJPnau9Rg41-77">
          <mxGeometry relative="1" as="geometry" />
        </mxCell>
        <mxCell id="qaMExAlMrHJPnau9Rg41-82" value="全量用户" style="edgeLabel;html=1;align=center;verticalAlign=middle;resizable=0;points=[];sketch=1;hachureGap=4;jiggle=2;curveFitting=1;fontSize=13;fontFamily=Comic Sans MS;" vertex="1" connectable="0" parent="qaMExAlMrHJPnau9Rg41-81">
          <mxGeometry x="0.5255" y="-3" relative="1" as="geometry">
            <mxPoint as="offset" />
          </mxGeometry>
        </mxCell>
        <mxCell id="qaMExAlMrHJPnau9Rg41-43" value="&lt;font face=&quot;Comic Sans MS&quot;&gt;LSM&lt;/font&gt;" style="strokeWidth=2;html=1;shape=mxgraph.flowchart.multi-document;whiteSpace=wrap;sketch=1;curveFitting=1;jiggle=2;" vertex="1" parent="1">
          <mxGeometry x="591" y="600" width="88" height="60" as="geometry" />
        </mxCell>
        <mxCell id="qaMExAlMrHJPnau9Rg41-44" style="edgeStyle=orthogonalEdgeStyle;rounded=0;orthogonalLoop=1;jettySize=auto;html=1;exitX=0.5;exitY=1;exitDx=0;exitDy=0;exitPerimeter=0;entryX=0.5;entryY=0;entryDx=0;entryDy=0;entryPerimeter=0;sketch=1;curveFitting=1;jiggle=2;" edge="1" parent="1" source="qaMExAlMrHJPnau9Rg41-47" target="qaMExAlMrHJPnau9Rg41-52">
          <mxGeometry relative="1" as="geometry">
            <mxPoint x="350" y="761" as="targetPoint" />
          </mxGeometry>
        </mxCell>
        <mxCell id="qaMExAlMrHJPnau9Rg41-45" value="已存在" style="edgeLabel;html=1;align=center;verticalAlign=middle;resizable=0;points=[];rounded=0;fontFamily=Comic Sans MS;fontSize=14;fontColor=default;fillColor=none;gradientColor=none;" vertex="1" connectable="0" parent="qaMExAlMrHJPnau9Rg41-44">
          <mxGeometry x="-0.4429" y="1" relative="1" as="geometry">
            <mxPoint as="offset" />
          </mxGeometry>
        </mxCell>
        <mxCell id="qaMExAlMrHJPnau9Rg41-46" style="edgeStyle=orthogonalEdgeStyle;rounded=0;orthogonalLoop=1;jettySize=auto;html=1;exitX=1;exitY=0.5;exitDx=0;exitDy=0;exitPerimeter=0;entryX=0;entryY=0.5;entryDx=0;entryDy=0;entryPerimeter=0;sketch=1;curveFitting=1;jiggle=2;" edge="1" parent="1" target="qaMExAlMrHJPnau9Rg41-43">
          <mxGeometry relative="1" as="geometry">
            <mxPoint x="530" y="656.76" as="targetPoint" />
            <mxPoint x="395" y="656.7650000000001" as="sourcePoint" />
            <Array as="points">
              <mxPoint x="500" y="657" />
              <mxPoint x="500" y="630" />
            </Array>
          </mxGeometry>
        </mxCell>
        <mxCell id="qaMExAlMrHJPnau9Rg41-47" value="Lookup LSM Tree&lt;br&gt;判断UID是否存在" style="strokeWidth=2;html=1;shape=mxgraph.flowchart.decision;whiteSpace=wrap;sketch=1;curveFitting=1;jiggle=2;fontFamily=Comic Sans MS;" vertex="1" parent="1">
          <mxGeometry x="260" y="611" width="170" height="90" as="geometry" />
        </mxCell>
        <mxCell id="qaMExAlMrHJPnau9Rg41-69" style="edgeStyle=orthogonalEdgeStyle;rounded=0;sketch=1;hachureGap=4;jiggle=2;curveFitting=1;orthogonalLoop=1;jettySize=auto;html=1;exitX=0;exitY=0;exitDx=100;exitDy=35;exitPerimeter=0;entryX=0;entryY=0.5;entryDx=0;entryDy=0;" edge="1" parent="1" source="qaMExAlMrHJPnau9Rg41-50" target="qaMExAlMrHJPnau9Rg41-55">
          <mxGeometry relative="1" as="geometry">
            <mxPoint x="790" y="703" as="targetPoint" />
          </mxGeometry>
        </mxCell>
        <mxCell id="qaMExAlMrHJPnau9Rg41-83" value="增量用户" style="edgeLabel;html=1;align=center;verticalAlign=middle;resizable=0;points=[];sketch=1;hachureGap=4;jiggle=2;curveFitting=1;fontSize=13;fontFamily=Comic Sans MS;" vertex="1" connectable="0" parent="qaMExAlMrHJPnau9Rg41-69">
          <mxGeometry x="0.3556" relative="1" as="geometry">
            <mxPoint as="offset" />
          </mxGeometry>
        </mxCell>
        <mxCell id="qaMExAlMrHJPnau9Rg41-50" value="" style="verticalLabelPosition=bottom;verticalAlign=top;html=1;shape=mxgraph.basic.layered_rect;dx=10;outlineConnect=0;whiteSpace=wrap;sketch=1;curveFitting=1;jiggle=2;" vertex="1" parent="1">
          <mxGeometry x="584" y="667.63" width="100" height="60" as="geometry" />
        </mxCell>
        <mxCell id="qaMExAlMrHJPnau9Rg41-51" style="edgeStyle=orthogonalEdgeStyle;rounded=0;orthogonalLoop=1;jettySize=auto;html=1;exitX=1;exitY=0.5;exitDx=0;exitDy=0;exitPerimeter=0;entryX=0;entryY=0.5;entryDx=0;entryDy=0;entryPerimeter=0;sketch=1;curveFitting=1;jiggle=2;" edge="1" parent="1" source="qaMExAlMrHJPnau9Rg41-41" target="qaMExAlMrHJPnau9Rg41-47">
          <mxGeometry relative="1" as="geometry" />
        </mxCell>
        <mxCell id="qaMExAlMrHJPnau9Rg41-52" value="&lt;font style=&quot;font-size: 17px;&quot; face=&quot;Comic Sans MS&quot;&gt;结束&lt;/font&gt;" style="strokeWidth=2;html=1;shape=mxgraph.flowchart.terminator;whiteSpace=wrap;sketch=1;curveFitting=1;jiggle=2;fillColor=#d5e8d4;strokeColor=#82b366;" vertex="1" parent="1">
          <mxGeometry x="295" y="769.62" width="100" height="60" as="geometry" />
        </mxCell>
        <mxCell id="qaMExAlMrHJPnau9Rg41-53" style="edgeStyle=orthogonalEdgeStyle;rounded=0;orthogonalLoop=1;jettySize=auto;html=1;exitX=1;exitY=0.5;exitDx=0;exitDy=0;exitPerimeter=0;entryX=0;entryY=0;entryDx=0;entryDy=25;entryPerimeter=0;sketch=1;curveFitting=1;jiggle=2;" edge="1" parent="1" source="qaMExAlMrHJPnau9Rg41-47" target="qaMExAlMrHJPnau9Rg41-50">
          <mxGeometry relative="1" as="geometry">
            <Array as="points">
              <mxPoint x="500" y="657" />
              <mxPoint x="500" y="693" />
            </Array>
          </mxGeometry>
        </mxCell>
        <mxCell id="qaMExAlMrHJPnau9Rg41-54" value="不存在" style="edgeLabel;html=1;align=center;verticalAlign=middle;resizable=0;points=[];rounded=0;fontFamily=Comic Sans MS;fontSize=15;fontColor=default;fillColor=none;gradientColor=none;" vertex="1" connectable="0" parent="qaMExAlMrHJPnau9Rg41-53">
          <mxGeometry x="-0.6394" y="-3" relative="1" as="geometry">
            <mxPoint x="6" y="-3" as="offset" />
          </mxGeometry>
        </mxCell>
        <mxCell id="qaMExAlMrHJPnau9Rg41-55" value="" style="rounded=1;whiteSpace=wrap;html=1;fillStyle=dashed;sketch=1;curveFitting=1;jiggle=2;fillColor=#f8cecc;strokeColor=#b85450;" vertex="1" parent="1">
          <mxGeometry x="815" y="676" width="225" height="151.26" as="geometry" />
        </mxCell>
        <mxCell id="qaMExAlMrHJPnau9Rg41-56" value="增量计数&lt;br&gt;当日UV+1" style="rounded=1;whiteSpace=wrap;html=1;sketch=1;curveFitting=1;jiggle=2;" vertex="1" parent="1">
          <mxGeometry x="865" y="747" width="120" height="60" as="geometry" />
        </mxCell>
        <mxCell id="qaMExAlMrHJPnau9Rg41-57" value="" style="shape=cylinder3;whiteSpace=wrap;html=1;boundedLbl=1;backgroundOutline=1;size=15;fillStyle=dashed;sketch=1;curveFitting=1;jiggle=2;fillColor=#dae8fc;strokeColor=#6c8ebf;" vertex="1" parent="1">
          <mxGeometry x="1110" y="641" width="210" height="221.26" as="geometry" />
        </mxCell>
        <mxCell id="qaMExAlMrHJPnau9Rg41-58" value="Flink &lt;br&gt;中间层" style="text;html=1;align=center;verticalAlign=middle;whiteSpace=wrap;rounded=0;fontFamily=Comic Sans MS;fontSize=17;fontStyle=1" vertex="1" parent="1">
          <mxGeometry x="300" y="571" width="100" height="25" as="geometry" />
        </mxCell>
        <mxCell id="qaMExAlMrHJPnau9Rg41-59" value="+I +U -D" style="text;html=1;align=center;verticalAlign=middle;whiteSpace=wrap;rounded=0;fontFamily=Comic Sans MS;fontSize=15;fontColor=default;" vertex="1" parent="1">
          <mxGeometry x="140" y="626" width="80" height="30" as="geometry" />
        </mxCell>
        <mxCell id="qaMExAlMrHJPnau9Rg41-60" value="&lt;font style=&quot;font-size: 12px;&quot;&gt;ChangeLog File&lt;/font&gt;" style="text;html=1;align=center;verticalAlign=middle;whiteSpace=wrap;rounded=0;fontFamily=Comic Sans MS;fontSize=17;fontColor=default;" vertex="1" parent="1">
          <mxGeometry x="604" y="677.5" width="60" height="30" as="geometry" />
        </mxCell>
        <mxCell id="qaMExAlMrHJPnau9Rg41-61" value="&lt;b&gt;Flink流&lt;br&gt;应用层&lt;/b&gt;" style="text;html=1;align=center;verticalAlign=middle;whiteSpace=wrap;rounded=0;fontFamily=Comic Sans MS;fontSize=17;" vertex="1" parent="1">
          <mxGeometry x="875" y="693.88" width="100" height="25.62" as="geometry" />
        </mxCell>
        <mxCell id="qaMExAlMrHJPnau9Rg41-62" value="&lt;b&gt;Paimon中间层&lt;/b&gt;" style="text;html=1;align=center;verticalAlign=middle;whiteSpace=wrap;rounded=0;fontFamily=Comic Sans MS;fontSize=15;strokeWidth=0;" vertex="1" parent="1">
          <mxGeometry x="577.62" y="541" width="115" height="35" as="geometry" />
        </mxCell>
        <mxCell id="qaMExAlMrHJPnau9Rg41-63" value="&lt;b&gt;Explorer 查询层&lt;/b&gt;" style="text;html=1;align=center;verticalAlign=middle;whiteSpace=wrap;rounded=0;fontFamily=Comic Sans MS;fontSize=17;" vertex="1" parent="1">
          <mxGeometry x="1180" y="682" width="60" height="30" as="geometry" />
        </mxCell>
        <mxCell id="qaMExAlMrHJPnau9Rg41-64" value="双写 SST和ChangeLog" style="text;html=1;align=center;verticalAlign=middle;whiteSpace=wrap;rounded=0;fontFamily=Comic Sans MS;fontSize=12;fontColor=default;" vertex="1" parent="1">
          <mxGeometry x="509.24" y="656" width="68.38" height="15" as="geometry" />
        </mxCell>
        <mxCell id="qaMExAlMrHJPnau9Rg41-65" value="&lt;font style=&quot;font-size: 12px;&quot;&gt;增量UV&lt;/font&gt;" style="edgeStyle=orthogonalEdgeStyle;rounded=0;orthogonalLoop=1;jettySize=auto;html=1;exitX=1;exitY=0.5;exitDx=0;exitDy=0;entryX=0;entryY=0.5;entryDx=0;entryDy=0;entryPerimeter=0;fontFamily=Comic Sans MS;fontSize=17;fontColor=default;sketch=1;curveFitting=1;jiggle=2;" edge="1" parent="1" source="qaMExAlMrHJPnau9Rg41-55" target="qaMExAlMrHJPnau9Rg41-57">
          <mxGeometry x="0.0128" y="10" relative="1" as="geometry">
            <mxPoint as="offset" />
          </mxGeometry>
        </mxCell>
        <mxCell id="qaMExAlMrHJPnau9Rg41-66" value="&lt;p style=&quot;border-color: var(--border-color); font-size: 10px; text-align: left;&quot;&gt;存储每小时的增量UV&lt;/p&gt;&lt;p style=&quot;border-color: var(--border-color); font-size: 10px; text-align: left;&quot;&gt;2024010100 UV:500&lt;/p&gt;&lt;p style=&quot;border-color: var(--border-color); font-size: 10px; text-align: left;&quot;&gt;2024010101 UV:300&lt;/p&gt;&lt;p style=&quot;border-color: var(--border-color); font-size: 10px; text-align: left;&quot;&gt;2024010102 UV:200&lt;/p&gt;&lt;p style=&quot;border-color: var(--border-color); font-size: 10px; text-align: left;&quot;&gt;&lt;span style=&quot;white-space: pre;&quot;&gt;&amp;nbsp;&amp;nbsp;&amp;nbsp;&amp;nbsp;&lt;/span&gt;&amp;nbsp; &amp;nbsp;……&lt;/p&gt;" style="rounded=1;whiteSpace=wrap;html=1;align=center;verticalAlign=middle;fontFamily=Comic Sans MS;fontSize=17;fontColor=default;fillColor=default;gradientColor=none;sketch=1;curveFitting=1;jiggle=2;" vertex="1" parent="1">
          <mxGeometry x="1140" y="727" width="140" height="120" as="geometry" />
        </mxCell>
        <mxCell id="qaMExAlMrHJPnau9Rg41-68" value="即席查询&lt;br&gt;累计UV" style="rounded=1;whiteSpace=wrap;html=1;sketch=1;curveFitting=1;jiggle=2;" vertex="1" parent="1">
          <mxGeometry x="870.5" y="536" width="120" height="60" as="geometry" />
        </mxCell>
        <mxCell id="qaMExAlMrHJPnau9Rg41-78" value="&lt;b&gt;Flink批&lt;br&gt;应用层&lt;br&gt;&lt;/b&gt;" style="text;html=1;align=center;verticalAlign=middle;whiteSpace=wrap;rounded=0;fontFamily=Comic Sans MS;fontSize=17;" vertex="1" parent="1">
          <mxGeometry x="880.5" y="496" width="100" height="25.62" as="geometry" />
        </mxCell>
      </root>
    </mxGraphModel>
  </diagram>
</mxfile>
